<svg id="visual" viewBox="0 0 900 175" width="900" height="175" xmlns="http://www.w3.org/2000/svg" xmlns:xlink="http://www.w3.org/1999/xlink" version="1.1"><path d="M0 110L8.8 111.5C17.7 113 35.3 116 53 116.3C70.7 116.7 88.3 114.3 106 116C123.7 117.7 141.3 123.3 159 119.5C176.7 115.7 194.3 102.3 212 98.7C229.7 95 247.3 101 265 104.2C282.7 107.3 300.3 107.7 318 112.5C335.7 117.3 353.3 126.7 371 125.8C388.7 125 406.3 114 423.8 110.5C441.3 107 458.7 111 476.2 112.8C493.7 114.7 511.3 114.3 529 115C546.7 115.7 564.3 117.3 582 112.8C599.7 108.3 617.3 97.7 635 97.7C652.7 97.7 670.3 108.3 688 112C705.7 115.7 723.3 112.3 741 113.3C758.7 114.3 776.3 119.7 794 119.7C811.7 119.7 829.3 114.3 847 110.7C864.7 107 882.3 105 891.2 104L900 103L900 176L891.2 176C882.3 176 864.7 176 847 176C829.3 176 811.7 176 794 176C776.3 176 758.7 176 741 176C723.3 176 705.7 176 688 176C670.3 176 652.7 176 635 176C617.3 176 599.7 176 582 176C564.3 176 546.7 176 529 176C511.3 176 493.7 176 476.2 176C458.7 176 441.3 176 423.8 176C406.3 176 388.7 176 371 176C353.3 176 335.7 176 318 176C300.3 176 282.7 176 265 176C247.3 176 229.7 176 212 176C194.3 176 176.7 176 159 176C141.3 176 123.7 176 106 176C88.3 176 70.7 176 53 176C35.3 176 17.7 176 8.8 176L0 176Z" fill="#ffa200"></path><path d="M0 139L8.8 132C17.7 125 35.3 111 53 105C70.7 99 88.3 101 106 102.7C123.7 104.3 141.3 105.7 159 108.8C176.7 112 194.3 117 212 116.5C229.7 116 247.3 110 265 110.3C282.7 110.7 300.3 117.3 318 121.2C335.7 125 353.3 126 371 120.7C388.7 115.3 406.3 103.7 423.8 98.3C441.3 93 458.7 94 476.2 99.8C493.7 105.7 511.3 116.3 529 117C546.7 117.7 564.3 108.3 582 108.8C599.7 109.3 617.3 119.7 635 119.2C652.7 118.7 670.3 107.3 688 103.2C705.7 99 723.3 102 741 105C758.7 108 776.3 111 794 116.2C811.7 121.3 829.3 128.7 847 125.3C864.7 122 882.3 108 891.2 101L900 94L900 176L891.2 176C882.3 176 864.7 176 847 176C829.3 176 811.7 176 794 176C776.3 176 758.7 176 741 176C723.3 176 705.7 176 688 176C670.3 176 652.7 176 635 176C617.3 176 599.7 176 582 176C564.3 176 546.7 176 529 176C511.3 176 493.7 176 476.2 176C458.7 176 441.3 176 423.8 176C406.3 176 388.7 176 371 176C353.3 176 335.7 176 318 176C300.3 176 282.7 176 265 176C247.3 176 229.7 176 212 176C194.3 176 176.7 176 159 176C141.3 176 123.7 176 106 176C88.3 176 70.7 176 53 176C35.3 176 17.7 176 8.8 176L0 176Z" fill="#e2b506"></path><path d="M0 146L8.8 145.2C17.7 144.3 35.3 142.7 53 142.2C70.7 141.7 88.3 142.3 106 142.3C123.7 142.3 141.3 141.7 159 138C176.7 134.3 194.3 127.7 212 126.3C229.7 125 247.3 129 265 132C282.7 135 300.3 137 318 137.8C335.7 138.7 353.3 138.3 371 137.5C388.7 136.7 406.3 135.3 423.8 136.7C441.3 138 458.7 142 476.2 140C493.7 138 511.3 130 529 129.3C546.7 128.7 564.3 135.3 582 132.2C599.7 129 617.3 116 635 115.3C652.7 114.7 670.3 126.3 688 132.5C705.7 138.7 723.3 139.3 741 135C758.7 130.7 776.3 121.3 794 116.8C811.7 112.3 829.3 112.7 847 114.8C864.7 117 882.3 121 891.2 123L900 125L900 176L891.2 176C882.3 176 864.7 176 847 176C829.3 176 811.7 176 794 176C776.3 176 758.7 176 741 176C723.3 176 705.7 176 688 176C670.3 176 652.7 176 635 176C617.3 176 599.7 176 582 176C564.3 176 546.7 176 529 176C511.3 176 493.7 176 476.2 176C458.7 176 441.3 176 423.8 176C406.3 176 388.7 176 371 176C353.3 176 335.7 176 318 176C300.3 176 282.7 176 265 176C247.3 176 229.7 176 212 176C194.3 176 176.7 176 159 176C141.3 176 123.7 176 106 176C88.3 176 70.7 176 53 176C35.3 176 17.7 176 8.8 176L0 176Z" fill="#c5c42b"></path><path d="M0 150L8.8 146C17.7 142 35.3 134 53 132.7C70.7 131.3 88.3 136.7 106 135C123.7 133.3 141.3 124.7 159 124.3C176.7 124 194.3 132 212 132.5C229.7 133 247.3 126 265 123.3C282.7 120.7 300.3 122.3 318 122.8C335.7 123.3 353.3 122.7 371 124.5C388.7 126.3 406.3 130.7 423.8 133.2C441.3 135.7 458.7 136.3 476.2 133.7C493.7 131 511.3 125 529 125.3C546.7 125.7 564.3 132.3 582 133.5C599.7 134.7 617.3 130.3 635 132C652.7 133.7 670.3 141.3 688 144C705.7 146.7 723.3 144.3 741 139C758.7 133.7 776.3 125.3 794 125.8C811.7 126.3 829.3 135.7 847 136.5C864.7 137.3 882.3 129.7 891.2 125.8L900 122L900 176L891.2 176C882.3 176 864.7 176 847 176C829.3 176 811.7 176 794 176C776.3 176 758.7 176 741 176C723.3 176 705.7 176 688 176C670.3 176 652.7 176 635 176C617.3 176 599.7 176 582 176C564.3 176 546.7 176 529 176C511.3 176 493.7 176 476.2 176C458.7 176 441.3 176 423.8 176C406.3 176 388.7 176 371 176C353.3 176 335.7 176 318 176C300.3 176 282.7 176 265 176C247.3 176 229.7 176 212 176C194.3 176 176.7 176 159 176C141.3 176 123.7 176 106 176C88.3 176 70.7 176 53 176C35.3 176 17.7 176 8.8 176L0 176Z" fill="#a8d04d"></path><path d="M0 127L8.8 129.7C17.7 132.3 35.3 137.7 53 140.7C70.7 143.7 88.3 144.3 106 141.7C123.7 139 141.3 133 159 132.8C176.7 132.7 194.3 138.3 212 141.7C229.7 145 247.3 146 265 143.5C282.7 141 300.3 135 318 131C335.7 127 353.3 125 371 125.2C388.7 125.3 406.3 127.7 423.8 128.7C441.3 129.7 458.7 129.3 476.2 130C493.7 130.7 511.3 132.3 529 134.8C546.7 137.3 564.3 140.7 582 141.3C599.7 142 617.3 140 635 137C652.7 134 670.3 130 688 130.3C705.7 130.7 723.3 135.3 741 135.3C758.7 135.3 776.3 130.7 794 127.8C811.7 125 829.3 124 847 129C864.7 134 882.3 145 891.2 150.5L900 156L900 176L891.2 176C882.3 176 864.7 176 847 176C829.3 176 811.7 176 794 176C776.3 176 758.7 176 741 176C723.3 176 705.7 176 688 176C670.3 176 652.7 176 635 176C617.3 176 599.7 176 582 176C564.3 176 546.7 176 529 176C511.3 176 493.7 176 476.2 176C458.7 176 441.3 176 423.8 176C406.3 176 388.7 176 371 176C353.3 176 335.7 176 318 176C300.3 176 282.7 176 265 176C247.3 176 229.7 176 212 176C194.3 176 176.7 176 159 176C141.3 176 123.7 176 106 176C88.3 176 70.7 176 53 176C35.3 176 17.7 176 8.8 176L0 176Z" fill="#8cd96f"></path><path d="M0 148L8.8 149.5C17.7 151 35.3 154 53 152.8C70.7 151.7 88.3 146.3 106 143.8C123.7 141.3 141.3 141.7 159 142.2C176.7 142.7 194.3 143.3 212 145.2C229.7 147 247.3 150 265 152.2C282.7 154.3 300.3 155.7 318 153.2C335.7 150.7 353.3 144.3 371 141.5C388.7 138.7 406.3 139.3 423.8 140.5C441.3 141.7 458.7 143.3 476.2 143.7C493.7 144 511.3 143 529 145.7C546.7 148.3 564.3 154.7 582 154C599.7 153.3 617.3 145.7 635 141.7C652.7 137.7 670.3 137.3 688 139.3C705.7 141.3 723.3 145.7 741 147.2C758.7 148.7 776.3 147.3 794 147.2C811.7 147 829.3 148 847 148.7C864.7 149.3 882.3 149.7 891.2 149.8L900 150L900 176L891.2 176C882.3 176 864.7 176 847 176C829.3 176 811.7 176 794 176C776.3 176 758.7 176 741 176C723.3 176 705.7 176 688 176C670.3 176 652.7 176 635 176C617.3 176 599.7 176 582 176C564.3 176 546.7 176 529 176C511.3 176 493.7 176 476.2 176C458.7 176 441.3 176 423.8 176C406.3 176 388.7 176 371 176C353.3 176 335.7 176 318 176C300.3 176 282.7 176 265 176C247.3 176 229.7 176 212 176C194.3 176 176.7 176 159 176C141.3 176 123.7 176 106 176C88.3 176 70.7 176 53 176C35.3 176 17.7 176 8.8 176L0 176Z" fill="#70e092"></path><path d="M0 152L8.8 151.3C17.7 150.7 35.3 149.3 53 150.7C70.7 152 88.3 156 106 158.5C123.7 161 141.3 162 159 159.3C176.7 156.7 194.3 150.3 212 147.7C229.7 145 247.3 146 265 147.5C282.7 149 300.3 151 318 154C335.7 157 353.3 161 371 162C388.7 163 406.3 161 423.8 159.8C441.3 158.7 458.7 158.3 476.2 158.8C493.7 159.3 511.3 160.7 529 158.5C546.7 156.3 564.3 150.7 582 150.7C599.7 150.7 617.3 156.3 635 156.7C652.7 157 670.3 152 688 149.3C705.7 146.7 723.3 146.3 741 146.5C758.7 146.7 776.3 147.3 794 149.7C811.7 152 829.3 156 847 157.3C864.7 158.7 882.3 157.3 891.2 156.7L900 156L900 176L891.2 176C882.3 176 864.7 176 847 176C829.3 176 811.7 176 794 176C776.3 176 758.7 176 741 176C723.3 176 705.7 176 688 176C670.3 176 652.7 176 635 176C617.3 176 599.7 176 582 176C564.3 176 546.7 176 529 176C511.3 176 493.7 176 476.2 176C458.7 176 441.3 176 423.8 176C406.3 176 388.7 176 371 176C353.3 176 335.7 176 318 176C300.3 176 282.7 176 265 176C247.3 176 229.7 176 212 176C194.3 176 176.7 176 159 176C141.3 176 123.7 176 106 176C88.3 176 70.7 176 53 176C35.3 176 17.7 176 8.8 176L0 176Z" fill="#57e6b3"></path><path d="M0 155L8.8 155.3C17.7 155.7 35.3 156.3 53 157C70.7 157.7 88.3 158.3 106 158.3C123.7 158.3 141.3 157.7 159 157.5C176.7 157.3 194.3 157.7 212 159.7C229.7 161.7 247.3 165.3 265 166.7C282.7 168 300.3 167 318 166.3C335.7 165.7 353.3 165.3 371 163.5C388.7 161.7 406.3 158.3 423.8 157C441.3 155.7 458.7 156.3 476.2 156.3C493.7 156.3 511.3 155.7 529 156.2C546.7 156.7 564.3 158.3 582 158.2C599.7 158 617.3 156 635 155.5C652.7 155 670.3 156 688 156.3C705.7 156.7 723.3 156.3 741 156C758.7 155.7 776.3 155.3 794 155.7C811.7 156 829.3 157 847 157.7C864.7 158.3 882.3 158.7 891.2 158.8L900 159L900 176L891.2 176C882.3 176 864.7 176 847 176C829.3 176 811.7 176 794 176C776.3 176 758.7 176 741 176C723.3 176 705.7 176 688 176C670.3 176 652.7 176 635 176C617.3 176 599.7 176 582 176C564.3 176 546.7 176 529 176C511.3 176 493.7 176 476.2 176C458.7 176 441.3 176 423.8 176C406.3 176 388.7 176 371 176C353.3 176 335.7 176 318 176C300.3 176 282.7 176 265 176C247.3 176 229.7 176 212 176C194.3 176 176.7 176 159 176C141.3 176 123.7 176 106 176C88.3 176 70.7 176 53 176C35.3 176 17.7 176 8.8 176L0 176Z" fill="#49e9d1"></path></svg>