<svg id="visual" viewBox="0 0 900 175" width="900" height="175" xmlns="http://www.w3.org/2000/svg" xmlns:xlink="http://www.w3.org/1999/xlink" version="1.1"><path d="M0 63L8.8 61.5C17.7 60 35.3 57 53 56.7C70.7 56.3 88.3 58.7 106 57C123.7 55.3 141.3 49.7 159 53.5C176.7 57.3 194.3 70.7 212 74.3C229.7 78 247.3 72 265 68.8C282.7 65.7 300.3 65.3 318 60.5C335.7 55.7 353.3 46.3 371 47.2C388.7 48 406.3 59 423.8 62.5C441.3 66 458.7 62 476.2 60.2C493.7 58.3 511.3 58.7 529 58C546.7 57.3 564.3 55.7 582 60.2C599.7 64.7 617.3 75.3 635 75.3C652.7 75.3 670.3 64.7 688 61C705.7 57.3 723.3 60.7 741 59.7C758.7 58.7 776.3 53.3 794 53.3C811.7 53.3 829.3 58.7 847 62.3C864.7 66 882.3 68 891.2 69L900 70L900 0L891.2 0C882.3 0 864.7 0 847 0C829.3 0 811.7 0 794 0C776.3 0 758.7 0 741 0C723.3 0 705.7 0 688 0C670.3 0 652.7 0 635 0C617.3 0 599.7 0 582 0C564.3 0 546.7 0 529 0C511.3 0 493.7 0 476.2 0C458.7 0 441.3 0 423.8 0C406.3 0 388.7 0 371 0C353.3 0 335.7 0 318 0C300.3 0 282.7 0 265 0C247.3 0 229.7 0 212 0C194.3 0 176.7 0 159 0C141.3 0 123.7 0 106 0C88.3 0 70.7 0 53 0C35.3 0 17.7 0 8.8 0L0 0Z" fill="#ffa200"></path><path d="M0 34L8.8 41C17.7 48 35.3 62 53 68C70.7 74 88.3 72 106 70.3C123.7 68.7 141.3 67.3 159 64.2C176.7 61 194.3 56 212 56.5C229.7 57 247.3 63 265 62.7C282.7 62.3 300.3 55.7 318 51.8C335.7 48 353.3 47 371 52.3C388.7 57.7 406.3 69.3 423.8 74.7C441.3 80 458.7 79 476.2 73.2C493.7 67.3 511.3 56.7 529 56C546.7 55.3 564.3 64.7 582 64.2C599.7 63.7 617.3 53.3 635 53.8C652.7 54.3 670.3 65.7 688 69.8C705.7 74 723.3 71 741 68C758.7 65 776.3 62 794 56.8C811.7 51.7 829.3 44.3 847 47.7C864.7 51 882.3 65 891.2 72L900 79L900 0L891.2 0C882.3 0 864.7 0 847 0C829.3 0 811.7 0 794 0C776.3 0 758.7 0 741 0C723.3 0 705.7 0 688 0C670.3 0 652.7 0 635 0C617.3 0 599.7 0 582 0C564.3 0 546.7 0 529 0C511.3 0 493.7 0 476.2 0C458.7 0 441.3 0 423.8 0C406.3 0 388.7 0 371 0C353.3 0 335.7 0 318 0C300.3 0 282.7 0 265 0C247.3 0 229.7 0 212 0C194.3 0 176.7 0 159 0C141.3 0 123.7 0 106 0C88.3 0 70.7 0 53 0C35.3 0 17.7 0 8.8 0L0 0Z" fill="#e2b506"></path><path d="M0 27L8.8 27.8C17.7 28.7 35.3 30.3 53 30.8C70.7 31.3 88.3 30.7 106 30.7C123.7 30.7 141.3 31.3 159 35C176.7 38.7 194.3 45.3 212 46.7C229.7 48 247.3 44 265 41C282.7 38 300.3 36 318 35.2C335.7 34.3 353.3 34.7 371 35.5C388.7 36.3 406.3 37.7 423.8 36.3C441.3 35 458.7 31 476.2 33C493.7 35 511.3 43 529 43.7C546.7 44.3 564.3 37.7 582 40.8C599.7 44 617.3 57 635 57.7C652.7 58.3 670.3 46.7 688 40.5C705.7 34.3 723.3 33.7 741 38C758.7 42.3 776.3 51.7 794 56.2C811.7 60.7 829.3 60.3 847 58.2C864.7 56 882.3 52 891.2 50L900 48L900 0L891.2 0C882.3 0 864.7 0 847 0C829.3 0 811.7 0 794 0C776.3 0 758.7 0 741 0C723.3 0 705.7 0 688 0C670.3 0 652.7 0 635 0C617.3 0 599.7 0 582 0C564.3 0 546.7 0 529 0C511.3 0 493.7 0 476.2 0C458.7 0 441.3 0 423.8 0C406.3 0 388.7 0 371 0C353.3 0 335.7 0 318 0C300.3 0 282.7 0 265 0C247.3 0 229.7 0 212 0C194.3 0 176.7 0 159 0C141.3 0 123.7 0 106 0C88.3 0 70.7 0 53 0C35.3 0 17.7 0 8.8 0L0 0Z" fill="#c5c42b"></path><path d="M0 23L8.8 27C17.7 31 35.3 39 53 40.3C70.7 41.7 88.3 36.3 106 38C123.7 39.7 141.3 48.3 159 48.7C176.7 49 194.3 41 212 40.5C229.7 40 247.3 47 265 49.7C282.7 52.3 300.3 50.7 318 50.2C335.7 49.7 353.3 50.3 371 48.5C388.7 46.7 406.3 42.3 423.8 39.8C441.3 37.3 458.7 36.7 476.2 39.3C493.7 42 511.3 48 529 47.7C546.7 47.3 564.3 40.7 582 39.5C599.7 38.3 617.3 42.7 635 41C652.7 39.3 670.3 31.7 688 29C705.7 26.3 723.3 28.7 741 34C758.7 39.3 776.3 47.7 794 47.2C811.7 46.7 829.3 37.3 847 36.5C864.7 35.7 882.3 43.3 891.2 47.2L900 51L900 0L891.2 0C882.3 0 864.7 0 847 0C829.3 0 811.7 0 794 0C776.3 0 758.7 0 741 0C723.3 0 705.7 0 688 0C670.3 0 652.7 0 635 0C617.3 0 599.7 0 582 0C564.3 0 546.7 0 529 0C511.3 0 493.7 0 476.2 0C458.7 0 441.3 0 423.8 0C406.3 0 388.7 0 371 0C353.3 0 335.7 0 318 0C300.3 0 282.7 0 265 0C247.3 0 229.7 0 212 0C194.3 0 176.7 0 159 0C141.3 0 123.7 0 106 0C88.3 0 70.7 0 53 0C35.3 0 17.7 0 8.8 0L0 0Z" fill="#a8d04d"></path><path d="M0 46L8.8 43.3C17.7 40.7 35.3 35.3 53 32.3C70.7 29.3 88.3 28.7 106 31.3C123.7 34 141.3 40 159 40.2C176.7 40.3 194.3 34.7 212 31.3C229.7 28 247.3 27 265 29.5C282.7 32 300.3 38 318 42C335.7 46 353.3 48 371 47.8C388.7 47.7 406.3 45.3 423.8 44.3C441.3 43.3 458.7 43.7 476.2 43C493.7 42.3 511.3 40.7 529 38.2C546.7 35.7 564.3 32.3 582 31.7C599.7 31 617.3 33 635 36C652.7 39 670.3 43 688 42.7C705.7 42.3 723.3 37.7 741 37.7C758.7 37.7 776.3 42.3 794 45.2C811.7 48 829.3 49 847 44C864.7 39 882.3 28 891.2 22.5L900 17L900 0L891.2 0C882.3 0 864.7 0 847 0C829.3 0 811.7 0 794 0C776.3 0 758.7 0 741 0C723.3 0 705.7 0 688 0C670.3 0 652.7 0 635 0C617.3 0 599.7 0 582 0C564.3 0 546.7 0 529 0C511.3 0 493.7 0 476.2 0C458.7 0 441.3 0 423.8 0C406.3 0 388.7 0 371 0C353.3 0 335.7 0 318 0C300.3 0 282.7 0 265 0C247.3 0 229.7 0 212 0C194.3 0 176.7 0 159 0C141.3 0 123.7 0 106 0C88.3 0 70.7 0 53 0C35.3 0 17.7 0 8.8 0L0 0Z" fill="#8cd96f"></path><path d="M0 25L8.8 23.5C17.7 22 35.3 19 53 20.2C70.7 21.3 88.3 26.7 106 29.2C123.7 31.7 141.3 31.3 159 30.8C176.7 30.3 194.3 29.7 212 27.8C229.7 26 247.3 23 265 20.8C282.7 18.7 300.3 17.3 318 19.8C335.7 22.3 353.3 28.7 371 31.5C388.7 34.3 406.3 33.7 423.8 32.5C441.3 31.3 458.7 29.7 476.2 29.3C493.7 29 511.3 30 529 27.3C546.7 24.7 564.3 18.3 582 19C599.7 19.7 617.3 27.3 635 31.3C652.7 35.3 670.3 35.7 688 33.7C705.7 31.7 723.3 27.3 741 25.8C758.7 24.3 776.3 25.7 794 25.8C811.7 26 829.3 25 847 24.3C864.7 23.7 882.3 23.3 891.2 23.2L900 23L900 0L891.2 0C882.3 0 864.7 0 847 0C829.3 0 811.7 0 794 0C776.3 0 758.7 0 741 0C723.3 0 705.7 0 688 0C670.3 0 652.7 0 635 0C617.3 0 599.7 0 582 0C564.3 0 546.7 0 529 0C511.3 0 493.7 0 476.2 0C458.7 0 441.3 0 423.8 0C406.3 0 388.7 0 371 0C353.3 0 335.7 0 318 0C300.3 0 282.7 0 265 0C247.3 0 229.7 0 212 0C194.3 0 176.7 0 159 0C141.3 0 123.7 0 106 0C88.3 0 70.7 0 53 0C35.3 0 17.7 0 8.8 0L0 0Z" fill="#70e092"></path><path d="M0 21L8.8 21.7C17.7 22.3 35.3 23.7 53 22.3C70.7 21 88.3 17 106 14.5C123.7 12 141.3 11 159 13.7C176.7 16.3 194.3 22.7 212 25.3C229.7 28 247.3 27 265 25.5C282.7 24 300.3 22 318 19C335.7 16 353.3 12 371 11C388.7 10 406.3 12 423.8 13.2C441.3 14.3 458.7 14.7 476.2 14.2C493.7 13.7 511.3 12.3 529 14.5C546.7 16.7 564.3 22.3 582 22.3C599.7 22.3 617.3 16.7 635 16.3C652.7 16 670.3 21 688 23.7C705.7 26.3 723.3 26.7 741 26.5C758.7 26.3 776.3 25.7 794 23.3C811.7 21 829.3 17 847 15.7C864.7 14.3 882.3 15.7 891.2 16.3L900 17L900 0L891.2 0C882.3 0 864.7 0 847 0C829.3 0 811.7 0 794 0C776.3 0 758.7 0 741 0C723.3 0 705.7 0 688 0C670.3 0 652.7 0 635 0C617.3 0 599.7 0 582 0C564.3 0 546.7 0 529 0C511.3 0 493.7 0 476.2 0C458.7 0 441.3 0 423.8 0C406.3 0 388.7 0 371 0C353.3 0 335.7 0 318 0C300.3 0 282.7 0 265 0C247.3 0 229.7 0 212 0C194.3 0 176.7 0 159 0C141.3 0 123.7 0 106 0C88.3 0 70.7 0 53 0C35.3 0 17.7 0 8.8 0L0 0Z" fill="#57e6b3"></path><path d="M0 18L8.8 17.7C17.7 17.3 35.3 16.7 53 16C70.7 15.3 88.3 14.7 106 14.7C123.7 14.7 141.3 15.3 159 15.5C176.7 15.7 194.3 15.3 212 13.3C229.7 11.3 247.3 7.7 265 6.3C282.7 5 300.3 6 318 6.7C335.7 7.3 353.3 7.7 371 9.5C388.7 11.3 406.3 14.7 423.8 16C441.3 17.3 458.7 16.7 476.2 16.7C493.7 16.7 511.3 17.3 529 16.8C546.7 16.3 564.3 14.7 582 14.8C599.7 15 617.3 17 635 17.5C652.7 18 670.3 17 688 16.7C705.7 16.3 723.3 16.7 741 17C758.7 17.3 776.3 17.7 794 17.3C811.7 17 829.3 16 847 15.3C864.7 14.7 882.3 14.3 891.2 14.2L900 14L900 0L891.2 0C882.3 0 864.7 0 847 0C829.3 0 811.7 0 794 0C776.3 0 758.7 0 741 0C723.3 0 705.7 0 688 0C670.3 0 652.7 0 635 0C617.3 0 599.7 0 582 0C564.3 0 546.7 0 529 0C511.3 0 493.7 0 476.2 0C458.7 0 441.3 0 423.8 0C406.3 0 388.7 0 371 0C353.3 0 335.7 0 318 0C300.3 0 282.7 0 265 0C247.3 0 229.7 0 212 0C194.3 0 176.7 0 159 0C141.3 0 123.7 0 106 0C88.3 0 70.7 0 53 0C35.3 0 17.7 0 8.8 0L0 0Z" fill="#49e9d1"></path></svg>